<svg width="425.75000000000006" height="34.83556729977524" viewBox="0 0 370.29824561403507 30.298413284971037" class="looka-1j8o68f">
<defs id="SvgjsDefs2779">
</defs>
<g id="SvgjsG2780" featurekey="PG4fjM-0" transform="matrix(0.3836760634985758,0,0,0.3836760634985758,-3.8367602690837503,-4.020924969832111)" fill="#47abff">
<defs xmlns="http://www.w3.org/2000/svg">
</defs>
<title xmlns="http://www.w3.org/2000/svg">
</title>
<path xmlns="http://www.w3.org/2000/svg" d="M85.32,62.07A68.22,68.22,0,0,1,79,66.23c-.54.31-1.08.62-1.63.92l-.2.11-.11,0,0,0h0l-.07,0-.1.05c-.14.08-.32.17-.52.26a14,14,0,0,1-1.32.52c-.48.17-1,.31-1.48.45a30.59,30.59,0,0,1-3.14.65c-1.08.18-2.19.31-3.33.41-2.27.2-4.65.28-7.16.32s-5.15.06-7.92.14c-1.38,0-2.8.11-4.25.21l-2.19.18c-.74.07-1.48.16-2.25.27a61,61,0,0,0-9,2,90.87,90.87,0,0,0-8.63,3c-1.39.57-2.76,1.16-4.12,1.77a39.89,39.89,0,0,0,9.58,7.16c2-1,4-2,6-2.83a48.67,48.67,0,0,1,7.14-2.39c.57-.14,1.17-.28,1.77-.4s1.2-.23,1.8-.33c1.2-.21,2.4-.38,3.59-.53,2.38-.31,4.73-.53,7-.79s4.53-.52,6.73-.9c1.09-.2,2.18-.42,3.26-.69a29.78,29.78,0,0,0,3.27-1c.56-.2,1.12-.43,1.7-.69l.89-.44c.3-.15.62-.33,1-.53a11.4,11.4,0,0,0,1.08-.7c.1-.06.2-.15.31-.22L77,72.1l.09-.07.07-.06.1-.09.19-.18L79,70.22q3.14-3,6.22-6.08c1-1.07,2.09-2.14,3.13-3.23.16-.52.3-1,.43-1.57Q87.07,60.78,85.32,62.07Z" style="fill-rule: evenodd;">
</path>
<path xmlns="http://www.w3.org/2000/svg" d="M80.24,49.11l-1.68-.06-.42,0-.21,0h-.16c-.19,0-.42,0-.65,0-1,0-2-.13-3.14-.26-2.21-.26-4.54-.66-6.94-1.12s-4.87-1-7.43-1.54-5.19-1.11-7.9-1.64c-1.36-.26-2.73-.52-4.13-.76l-2.12-.35-1.06-.17L43.3,43c-2.94-.4-5.92-.63-8.95-.74s-6.09-.09-9.19,0-6.25.33-9.43.61c-1.75.15-3.51.33-5.27.51a40.83,40.83,0,0,0-.46,6.1,41.64,41.64,0,0,0,.31,5c2.25-.38,4.44-.75,6.61-1.08,3-.48,6-.9,8.93-1.24s5.77-.59,8.56-.72,5.52-.19,8.15-.08l1,0,1,0,2,.12,3.92.31c2.59.23,5.13.49,7.62.73s4.93.48,7.33.65,4.74.28,7.12.25c1.2,0,2.39-.06,3.72-.21.34,0,.68-.08,1.06-.15l.14,0h.07l.06,0,.21-.06.43-.11,1.7-.46c2.26-.6,4.46-1.21,6.61-1.8l3.47-1v-.24c0-.24,0-.48,0-.72-1.06.11-2.15.19-3.24.24C84.63,49.15,82.47,49.17,80.24,49.11Z" style="fill-rule: evenodd;">
</path>
<path xmlns="http://www.w3.org/2000/svg" d="M79.08,74.93c-.5.46-1,.91-1.52,1.35l-.19.17-.08.07,0,0-.07.06-.09.08-.46.37-.58.4-.63.4c-.44.26-.9.51-1.37.75-.94.47-1.94.89-3,1.28s-2.08.73-3.17,1c-2.17.64-4.46,1.18-6.86,1.71s-4.92,1-7.51,1.58c-1.29.28-2.61.56-3.93.87-.67.15-1.34.3-2,.47l-1,.24-1,.27c-2.11.56-4.21,1.22-6.28,2a40.05,40.05,0,0,0,45.6-19Q82,72.23,79.08,74.93Z" style="fill-rule: evenodd;">
</path>
<path xmlns="http://www.w3.org/2000/svg" d="M80.29,26.58l.77.66.78.61,1.56,1.24c.63.5,1.25,1,1.87,1.55A40.08,40.08,0,0,0,58.79,10.48,218.06,218.06,0,0,1,77.17,24Z" style="fill-rule: evenodd;">
</path>
<path xmlns="http://www.w3.org/2000/svg" d="M82.65,33.53l-1.57-1.14c-.26-.18-.52-.38-.79-.56l-.8-.51c-1.07-.68-2.15-1.36-3.24-2A266.39,266.39,0,0,0,48.52,14.44q-4.16-1.92-8.41-3.69A39.84,39.84,0,0,0,27,16.82Q37.06,19.4,46.5,22.47a301,301,0,0,1,29,11.08c1.12.5,2.23,1,3.33,1.51l.83.38.82.32c.56.21,1.1.43,1.65.66q3.27,1.32,6.39,2.84l.19.1c-.16-.63-.34-1.24-.53-1.85Q85.44,35.56,82.65,33.53Z" style="fill-rule: evenodd;">
</path>
<path xmlns="http://www.w3.org/2000/svg" d="M87.76,43.12c-2.08-.66-4.21-1.39-6.38-2.17l-1.64-.59-.82-.3-.81-.24-3.37-1c-4.56-1.37-9.33-2.81-14.28-4.27-2.48-.72-5-1.46-7.58-2.19L49,31.26l-2-.54-1-.27-1-.26c-1.37-.32-2.72-.63-4.09-.93l-4.13-.89q-4.15-.87-8.45-1.69c-3.21-.61-6.47-1.21-9.78-1.77a39.76,39.76,0,0,0-5.79,10.22q7.17.66,14,1.38c3,.31,5.86.63,8.72,1l4.24.5c1.39.16,2.78.33,4.12.51l1,.13,1,.15,2,.32,4,.65L59.44,41c5.07.83,9.93,1.62,14.6,2.32l3.48.5.88.12c.28,0,.57,0,.85.05l1.69.1q3.36.21,6.56.52l2.23.23-.15-1.15C89,43.51,88.37,43.32,87.76,43.12Z" style="fill-rule: evenodd;">
</path>
<path xmlns="http://www.w3.org/2000/svg" d="M85.94,55.23a63.91,63.91,0,0,1-6.49,2.12l-1.68.43-.42.1-.11,0,0,0-.06,0h-.06l-.58.15c-.44.09-.92.17-1.43.24s-1,.12-1.56.16c-1.08.09-2.19.12-3.32.13s-2.31,0-3.48-.08c-2.38-.11-4.85-.31-7.41-.54s-5.23-.5-8-.72c-1.39-.12-2.79-.22-4.22-.31-.71,0-1.43-.09-2.16-.12l-1.09,0-1.13,0a75.12,75.12,0,0,0-9.21.4c-3.09.32-6.18.82-9.28,1.44S18,60,15,60.82l-3.08.85a40.21,40.21,0,0,0,4.88,10.11l1.76-.65c2.75-1,5.48-1.9,8.19-2.7s5.42-1.47,8.08-2a66.5,66.5,0,0,1,7.81-1.08l.95-.06,1,0c.65,0,1.3-.06,1.95-.09,1.29,0,2.57-.08,3.84-.1,2.54,0,5,0,7.45-.08s4.79-.08,7.12-.22c1.17-.07,2.32-.16,3.46-.29s2.3-.3,3.47-.52c.59-.12,1.18-.25,1.79-.4s1.23-.35,1.92-.59c.34-.12.7-.26,1.09-.43l.15-.07.16-.07.15-.07.11-.06.42-.24,1.66-1c2.21-1.3,4.38-2.61,6.5-3.95q2-1.24,3.91-2.51l.12-1C88.53,54.17,87.25,54.72,85.94,55.23Z" style="fill-rule: evenodd;">
</path>
</g>
<g id="SvgjsG2781" featurekey="jxYttZ-0" transform="matrix(1.0927385315783988,0,0,1.0927385315783988,48.81452345790154,-1.2669988676722115)" fill="#ffffff">
<path d="M10.44 11.58 c1.18 0.82 1.96 2.22 1.96 3.82 c0 2.54 -2 4.6 -4.46 4.6 l-5.94 0 l0 -15 l5.94 0 c2.02 0 3.64 1.72 3.64 3.8 c0 1.08 -0.44 2.08 -1.14 2.78 z M4.22 6.84 l0 3.96 l3.72 0 l0.06 0 c0.76 -0.06 1.36 -0.96 1.36 -2 c0 -1.06 -0.64 -1.96 -1.42 -1.96 l-3.72 0 z M7.94 18.16 c1.24 0 2.24 -1.24 2.24 -2.76 c0 -1.48 -0.96 -2.7 -2.14 -2.76 l-0.1 0 l-3.72 0 l0 5.52 l3.72 0 z M24.52 15.08 l0 0.74 l-7.78 0 c0 1.82 1.74 2.7 3.02 2.7 c0.94 0 1.98 -0.5 2.54 -1.3 l1.42 1.28 c-0.66 0.9 -1.74 1.7 -3.96 1.7 c-3.2 0 -5.16 -2.18 -5.16 -5.12 s1.9 -5.14 4.96 -5.14 s4.46 1.7 4.88 4.18 c0.06 0.32 0.08 0.64 0.08 0.96 z M16.78 14.120000000000001 l5.58 0 c0 -1.6 -1.28 -2.48 -2.8 -2.48 s-2.78 1.02 -2.78 2.48 z M32.46 10.24 l-0.44 1.62 c-0.14 -0.08 -0.58 -0.22 -0.94 -0.22 c-1.7 0 -2.5 1.62 -2.5 3.62 l0 4.74 l-2.06 0 l0 -9.88 l2.06 0 l0 1.4 c0.24 -0.92 1.3 -1.58 2.48 -1.58 c0.54 0 1.12 0.14 1.4 0.3 z M37.46 18.36 c0.64 0.26 1.14 0.08 1.44 -0.06 l0 1.6 c-0.26 0.16 -0.64 0.3 -1.18 0.3 c-1.18 0 -2.22 -0.38 -2.86 -1.42 c-0.6 -1 -0.6 -1.54 -0.6 -3.1 l0 -3.88 l-1.2 0 l0 -1.68 l1.2 0 l0 -3.12 l2.06 0 l0 3.12 l2.58 0 l0 1.68 l-2.58 0 l0 3.88 c0 1.64 0.16 2.24 1.14 2.68 z M50.620000000000005 15.08 l0 0.74 l-7.78 0 c0 1.82 1.74 2.7 3.02 2.7 c0.94 0 1.98 -0.5 2.54 -1.3 l1.42 1.28 c-0.66 0.9 -1.74 1.7 -3.96 1.7 c-3.2 0 -5.16 -2.18 -5.16 -5.12 s1.9 -5.14 4.96 -5.14 s4.46 1.7 4.88 4.18 c0.06 0.32 0.08 0.64 0.08 0.96 z M42.88 14.120000000000001 l5.58 0 c0 -1.6 -1.28 -2.48 -2.8 -2.48 s-2.78 1.02 -2.78 2.48 z M61.5 14.3 l0 5.7 l-2.08 0 l0.02 -0.08 l0 -5.42 c0 -2 -0.52 -2.88 -2.22 -2.88 c-1.92 0 -2.6 1.34 -2.6 3.08 l0 5.3 l-2.06 0 l0 -9.88 l2.06 0 l0 1.6 c0.28 -0.88 1.42 -1.68 2.6 -1.76 c1.94 -0.14 3.32 0.5 3.94 2.1 c0.42 -1.36 1.76 -2.02 2.92 -2.1 c2.68 -0.2 4.28 1.1 4.28 4.34 l0 5.7 l-2.06 0 l0 -5.5 c0 -2 -0.52 -2.88 -2.22 -2.88 c-1.72 0 -2.44 1.08 -2.58 2.68 z M79.96 15.08 l0 0.74 l-7.78 0 c0 1.82 1.74 2.7 3.02 2.7 c0.94 0 1.98 -0.5 2.54 -1.3 l1.42 1.28 c-0.66 0.9 -1.74 1.7 -3.96 1.7 c-3.2 0 -5.16 -2.18 -5.16 -5.12 s1.9 -5.14 4.96 -5.14 s4.46 1.7 4.88 4.18 c0.06 0.32 0.08 0.64 0.08 0.96 z M72.22 14.120000000000001 l5.58 0 c0 -1.6 -1.28 -2.48 -2.8 -2.48 s-2.78 1.02 -2.78 2.48 z M88.89999999999999 16.16 c0.04 0.12 0.38 1.1 -0.04 2.1 c-0.52 1.18 -1.9 1.94 -3.62 1.94 l-0.02 0 c-1.38 0 -2.64 -0.58 -3.58 -1.5 l1.34 -1.34 c0.56 0.72 1.36 1.08 2.24 1.08 c0.98 0 1.8 -0.36 2.02 -0.88 c0.14 -0.36 0.02 -0.74 0.02 -0.78 c-0.24 -0.6 -1.12 -0.72 -2.12 -0.94 c-1.34 -0.3 -2.68 -0.64 -3.2 -2.04 c-0.26 -0.72 -0.18 -1.56 0.18 -2.26 c0.82 -1.54 2.86 -1.6 3.1 -1.6 c1.38 0 2.68 0.52 3.6 1.46 l-1.34 1.34 c-0.56 -0.72 -1.38 -1.04 -2.26 -1.04 c-0.02 0 -1.2 0.02 -1.54 0.68 c-0.12 0.2 -0.18 0.54 -0.08 0.82 c0.2 0.56 1.1 0.74 2.06 0.96 c1.3 0.3 2.72 0.6 3.24 2 z M104.88 5 l2.24 0 l0 10.26 c0 2.42 -1.18 4.94 -4.86 4.94 s-4.9 -2.52 -4.9 -4.94 l2.22 0 c0 0.9 0.08 3.1 2.68 3.1 s2.62 -2.2 2.62 -3.1 l0 -10.26 z M114.46 11.64 c-1.7 0 -3.08 1.42 -3.08 3.44 c0 2 1.38 3.44 3.08 3.44 s3.08 -1.44 3.08 -3.44 c0 -2.02 -1.38 -3.44 -3.08 -3.44 z M114.46 9.94 c2.84 0 5.14 2.2 5.14 5.14 s-2.3 5.12 -5.14 5.12 s-5.14 -2.18 -5.14 -5.12 s2.3 -5.14 5.14 -5.14 z M131.14 14.3 l0 5.7 l-2.06 0 l0 -5.5 c0 -2 -0.62 -2.88 -2.32 -2.88 c-1.92 0 -2.7 1.34 -2.7 3.08 l0 5.3 l-2.06 0 l0 -15 l2.06 0 l0 6.72 c0.28 -0.88 1.52 -1.68 2.7 -1.76 c2.68 -0.2 4.38 1.1 4.38 4.34 z M142.88 14.3 l0 5.7 l-2.06 0 l0 -5.5 c0 -2 -0.62 -2.88 -2.32 -2.88 c-1.92 0 -2.7 1.34 -2.7 3.08 l0 5.3 l-2.06 0 l0 -9.88 l2.06 0 l0 1.6 c0.28 -0.88 1.52 -1.68 2.7 -1.76 c2.68 -0.2 4.38 1.1 4.38 4.34 z M152.56 16.16 c0.04 0.12 0.38 1.1 -0.04 2.1 c-0.52 1.18 -1.9 1.94 -3.62 1.94 l-0.02 0 c-1.38 0 -2.64 -0.58 -3.58 -1.5 l1.34 -1.34 c0.56 0.72 1.36 1.08 2.24 1.08 c0.98 0 1.8 -0.36 2.02 -0.88 c0.14 -0.36 0.02 -0.74 0.02 -0.78 c-0.24 -0.6 -1.12 -0.72 -2.12 -0.94 c-1.34 -0.3 -2.68 -0.64 -3.2 -2.04 c-0.26 -0.72 -0.18 -1.56 0.18 -2.26 c0.82 -1.54 2.86 -1.6 3.1 -1.6 c1.38 0 2.68 0.52 3.6 1.46 l-1.34 1.34 c-0.56 -0.72 -1.38 -1.04 -2.26 -1.04 c-0.02 0 -1.2 0.02 -1.54 0.68 c-0.12 0.2 -0.18 0.54 -0.08 0.82 c0.2 0.56 1.1 0.74 2.06 0.96 c1.3 0.3 2.72 0.6 3.24 2 z M159.76 11.64 c-1.7 0 -3.08 1.42 -3.08 3.44 c0 2 1.38 3.44 3.08 3.44 s3.08 -1.44 3.08 -3.44 c0 -2.02 -1.38 -3.44 -3.08 -3.44 z M159.76 9.94 c2.84 0 5.14 2.2 5.14 5.14 s-2.3 5.12 -5.14 5.12 s-5.14 -2.18 -5.14 -5.12 s2.3 -5.14 5.14 -5.14 z M176.24 14.3 l0 5.7 l-2.06 0 l0 -5.5 c0 -2 -0.62 -2.88 -2.32 -2.88 c-1.92 0 -2.7 1.34 -2.7 3.08 l0 5.3 l-2.06 0 l0 -9.88 l2.06 0 l0 1.6 c0.28 -0.88 1.52 -1.68 2.7 -1.76 c2.68 -0.2 4.38 1.1 4.38 4.34 z M197.92000000000002 20 l-2.82 0 l-1.06 -1.2 c-1.16 1.04 -2.38 1.4 -4.54 1.4 c-2.84 -0.02 -5.12 -2.2 -5.12 -5.14 c0 -1.92 0.98 -3.62 2.48 -4.56 c-0.5 -0.62 -0.8 -1.42 -0.8 -2.28 c0 -1.98 1.56 -3.4 3.46 -3.4 c1.92 0 3.46 1.42 3.46 3.4 c0 0.86 -0.3 1.66 -0.78 2.28 c0 0 -0.36 0.5 -1.14 0.9 c-0.22 0.1 -0.42 0.18 -0.62 0.24 l3.5 3.92 c0.38 -0.74 0.52 -1.38 0.56 -1.6 l2.04 0.36 c-0.08 0.42 -0.28 1.28 -0.76 2.22 c-0.1 0.24 -0.24 0.46 -0.38 0.66 z M189.52 6.9 c-0.76 0 -1.4 0.68 -1.4 1.52 s0.64 1.52 1.4 1.52 c0.78 0 1.4 -0.68 1.4 -1.52 s-0.62 -1.52 -1.4 -1.52 z M189.52 18.14 c1.12 0 2.18 -0.14 3.14 -0.9 l-4.54 -5.08 c-1 0.54 -1.68 1.64 -1.68 2.9 c0 1.8 1.38 3.08 3.08 3.08 z M217.22 16.46 l1.46 1.46 c-1.38 1.52 -3.36 2.28 -5.54 2.28 c-4.22 0 -7.62 -3.34 -7.62 -7.7 c0 -4.34 3.4 -7.68 7.62 -7.68 c2.18 0 4.16 0.76 5.56 2.3 l-1.46 1.46 c-0.88 -1.28 -2.48 -1.92 -4.1 -1.92 c-3.1 0 -5.4 2.76 -5.4 5.84 c0 2.82 2.08 5.86 5.4 5.86 c1.44 0 3.28 -0.56 4.08 -1.9 z M225.84 11.64 c-1.7 0 -3.08 1.42 -3.08 3.44 c0 2 1.38 3.44 3.08 3.44 s3.08 -1.44 3.08 -3.44 c0 -2.02 -1.38 -3.44 -3.08 -3.44 z M225.84 9.94 c2.84 0 5.14 2.2 5.14 5.14 s-2.3 5.12 -5.14 5.12 s-5.14 -2.18 -5.14 -5.12 s2.3 -5.14 5.14 -5.14 z M242.06000000000003 14.3 l0 5.7 l-2.08 0 l0.02 -0.08 l0 -5.42 c0 -2 -0.52 -2.88 -2.22 -2.88 c-1.92 0 -2.6 1.34 -2.6 3.08 l0 5.3 l-2.06 0 l0 -9.88 l2.06 0 l0 1.6 c0.28 -0.88 1.42 -1.68 2.6 -1.76 c1.94 -0.14 3.32 0.5 3.94 2.1 c0.42 -1.36 1.76 -2.02 2.92 -2.1 c2.68 -0.2 4.28 1.1 4.28 4.34 l0 5.7 l-2.06 0 l0 -5.5 c0 -2 -0.52 -2.88 -2.22 -2.88 c-1.72 0 -2.44 1.08 -2.58 2.68 z M260.86 15.08 c0 2.94 -2.12 5.12 -4.96 5.12 c-0.96 0 -2.18 -0.4 -2.84 -0.94 l0 5.84 l-2.06 0 l0 -14.98 l2.06 0 l0 0.78 c0.78 -0.6 1.88 -0.96 2.84 -0.96 c2.84 0 4.96 2.2 4.96 5.14 z M258.78000000000003 15.08 c0 -2.02 -1.38 -3.44 -3.08 -3.44 c-1.12 0 -2.1 0.5 -2.64 1.58 c-0.26 0.54 -0.42 1.18 -0.42 1.86 s0.16 1.32 0.42 1.86 c0.54 1.06 1.52 1.58 2.64 1.58 c1.7 0 3.08 -1.44 3.08 -3.44 z M267.28000000000003 9.92 c2.84 0 3.98 1.72 3.98 3.18 l0 6.9 l-2.06 0 l0 -1.08 c-0.72 0.98 -2 1.26 -2.8 1.26 c-2.26 0 -3.74 -1.32 -3.74 -3.08 c0 -2.46 1.84 -3.34 3.74 -3.34 l2.8 0 l0 -0.66 c0 -0.62 -0.24 -1.48 -1.92 -1.48 c-0.94 0 -1.8 0.5 -2.36 1.28 l-1.42 -1.28 c0.94 -1.04 2.28 -1.7 3.78 -1.7 z M269.2 16.92 l0 -1.48 l-2.52 0 c-1.22 0 -2.08 0.62 -1.94 1.74 c0.12 0.94 0.88 1.32 1.94 1.32 c1.9 0 2.52 -0.9 2.52 -1.58 z M282.88 14.3 l0 5.7 l-2.06 0 l0 -5.5 c0 -2 -0.62 -2.88 -2.32 -2.88 c-1.92 0 -2.7 1.34 -2.7 3.08 l0 5.3 l-2.06 0 l0 -9.88 l2.06 0 l0 1.6 c0.28 -0.88 1.52 -1.68 2.7 -1.76 c2.68 -0.2 4.38 1.1 4.38 4.34 z M294.2 10.12 c0 0 -2.5 5.92 -4.16 9.88 c-1.4 3.32 -2.5 5.32 -4.36 5.32 c-0.58 0 -1.32 -0.28 -1.86 -0.6 l0.62 -1.8 c0.16 0.14 0.52 0.34 0.76 0.4 c1.54 0.44 2.5 -2.78 3.16 -4.36 l-3.74 -8.84 l2.08 0 l2.72 6.48 l2.7 -6.48 l2.08 0 z">
</path>
</g>
</svg>
